<svg alt="Corry logo" xmlns="http://www.w3.org/2000/svg" xml:space="preserve" viewBox="1 1.3 249.3 100.9"><path class="corry-c" d="M28.3 68.8c-7.6 0-14-2.7-19.3-7.9-5.3-5.3-8-11.7-8-19.3V28.8c0-7.5 2.7-14 8-19.3 5.3-5.3 11.8-7.9 19.3-7.9 7.6 0 14 2.7 19.3 8 5.1 5.1 7.7 11.1 8 18.2H42.8c-.2-3.5-1.6-6.6-4.2-9.2-2.8-2.8-6.2-4.2-10.3-4.2-4 0-7.5 1.4-10.3 4.2-2.8 2.8-4.2 6.2-4.2 10.2v12.8c0 4 1.4 7.4 4.2 10.2 2.8 2.8 6.2 4.2 10.3 4.2 4 0 7.4-1.5 10.3-4.4 2.5-2.6 3.9-5.8 4.2-9.6h12.8c-.3 7.4-2.9 13.6-7.9 18.7-5.4 5.4-11.8 8.1-19.4 8.1z"></path><path class="corry-o" d="M88.9 68.8c-7.6 0-14-2.7-19.3-7.9-5.3-5.3-8-11.7-8-19.3V28.5c0-7.4 2.7-13.8 8-19.1C74.9 4 81.3 1.3 88.9 1.3c7.6 0 14 2.7 19.3 8.1 5.3 5.4 8 11.8 8 19.1v13.1c0 7.6-2.7 14-8 19.3-5.3 5.3-11.8 7.9-19.3 7.9zm14.5-40.3c0-3.8-1.4-7.2-4.2-10.1-2.8-2.9-6.2-4.3-10.3-4.3-4 0-7.5 1.4-10.3 4.3-2.8 2.9-4.2 6.3-4.2 10.1v13.1c0 3.8 1.4 7.2 4.2 10.1 2.8 2.9 6.2 4.3 10.3 4.3 4 0 7.4-1.4 10.3-4.3 2.8-2.9 4.2-6.3 4.2-10.1V28.5z"></path><path class="corry-r1" d="M149.5 14.1c-4 0-7.5 1.4-10.3 4.2-2.8 2.8-4.2 6.2-4.2 10.3v40.2h-12.8v-40c0-7.5 2.7-14 8-19.4 5.3-5.4 11.7-8.1 19.3-8.1h9.2v12.8h-9.2z"></path><path class="corry-r2" d="M186.8 14.1c-4 0-7.4 1.4-10.3 4.2-2.8 2.8-4.2 6.2-4.2 10.3v40.2h-12.8v-40c0-7.5 2.7-14 8-19.4 5.3-5.4 11.8-8.1 19.3-8.1h9.2v12.8h-9.2z"></path><path class="corry-y" d="M250.3 74.9c0 7.6-2.7 14-8.2 19.3-5.5 5.3-12.2 8-20.3 8V89.4c4.5 0 8.3-1.4 11.2-4.3 3-2.8 4.5-6.3 4.5-10.4v-6h-8.7c-7.6 0-14-2.7-19.3-8.1-5.3-5.4-8-11.8-8-19.2V1.3h12.8v40.5c0 3.9 1.4 7.2 4.2 10 2.8 2.8 6.2 4.2 10.3 4.2h8.7V1.3h12.8v73.6z"></path></svg>